<svg width="58" height="58" viewBox="0 0 58 58" fill="none" xmlns="http://www.w3.org/2000/svg">
<path d="M11.575 43.45C13.9834 41.6084 16.675 40.1563 19.65 39.0938C22.625 38.0313 25.7417 37.5 29 37.5C32.2584 37.5 35.375 38.0313 38.35 39.0938C41.325 40.1563 44.0167 41.6084 46.425 43.45C48.0778 41.5139 49.3646 39.3181 50.2854 36.8625C51.2063 34.407 51.6667 31.7861 51.6667 29C51.6667 22.7195 49.459 17.3715 45.0438 12.9563C40.6285 8.54099 35.2806 6.33335 29 6.33335C22.7195 6.33335 17.3715 8.54099 12.9563 12.9563C8.54099 17.3715 6.33335 22.7195 6.33335 29C6.33335 31.7861 6.79377 34.407 7.7146 36.8625C8.63544 39.3181 9.92224 41.5139 11.575 43.45ZM29 31.8334C26.2139 31.8334 23.8646 30.8771 21.9521 28.9646C20.0396 27.0521 19.0834 24.7028 19.0834 21.9167C19.0834 19.1306 20.0396 16.7813 21.9521 14.8688C23.8646 12.9563 26.2139 12 29 12C31.7861 12 34.1354 12.9563 36.0479 14.8688C37.9604 16.7813 38.9167 19.1306 38.9167 21.9167C38.9167 24.7028 37.9604 27.0521 36.0479 28.9646C34.1354 30.8771 31.7861 31.8334 29 31.8334ZM29 57.3334C25.0806 57.3334 21.3972 56.5896 17.95 55.1021C14.5028 53.6146 11.5042 51.5959 8.95419 49.0459C6.40419 46.4959 4.38544 43.4972 2.89794 40.05C1.41044 36.6028 0.666687 32.9195 0.666687 29C0.666687 25.0806 1.41044 21.3972 2.89794 17.95C4.38544 14.5028 6.40419 11.5042 8.95419 8.95419C11.5042 6.40419 14.5028 4.38544 17.95 2.89794C21.3972 1.41044 25.0806 0.666687 29 0.666687C32.9195 0.666687 36.6028 1.41044 40.05 2.89794C43.4972 4.38544 46.4959 6.40419 49.0459 8.95419C51.5959 11.5042 53.6146 14.5028 55.1021 17.95C56.5896 21.3972 57.3334 25.0806 57.3334 29C57.3334 32.9195 56.5896 36.6028 55.1021 40.05C53.6146 43.4972 51.5959 46.4959 49.0459 49.0459C46.4959 51.5959 43.4972 53.6146 40.05 55.1021C36.6028 56.5896 32.9195 57.3334 29 57.3334Z" fill="black"/>
</svg>
